<?xml version="1.0" encoding="utf-8"?>
<!-- Generator: Adobe Illustrator 16.0.0, SVG Export Plug-In . SVG Version: 6.00 Build 0)  -->
<!DOCTYPE svg PUBLIC "-//W3C//DTD SVG 1.1//EN" "http://www.w3.org/Graphics/SVG/1.1/DTD/svg11.dtd">
<svg version="1.1" id="Capa_1" xmlns="http://www.w3.org/2000/svg" xmlns:xlink="http://www.w3.org/1999/xlink" x="0px" y="0px"
	 width="1269.97px" height="540.763px" viewBox="0 0 1269.97 540.763" enable-background="new 0 0 1269.97 540.763"
	 xml:space="preserve">
<polygon fill="#FFFFFF" points="893.183,434.063 902.122,434.063 897.622,420.238 "/>
<g>
	<path fill="#FFFFFF" d="M626.629,418.646h-3.241v10.149h3.624c2.8,0,5.264-1.755,5.264-5.158
		C632.276,420.568,630.142,418.646,626.629,418.646"/>
	<polygon fill="#FFFFFF" points="759.848,174.278 751.3,182.801 751.3,310.636 759.848,318.84 798.439,318.84 806.662,310.636 
		806.662,182.801 798.439,174.278 	"/>
	<path fill="#FFFFFF" d="M818.78,418.699h-2.747v24.968h2.747c7.294,0,12.017-4.228,12.017-12.512
		C830.797,423.09,826.074,418.699,818.78,418.699"/>
	<path fill="#FFFFFF" d="M968.85,418.699h-2.747v24.968h2.747c7.294,0,12.018-4.228,12.018-12.512
		C980.867,423.09,976.144,418.699,968.85,418.699"/>
	<path fill="#FFFFFF" d="M1175.563,205.033V84.054h-153.958h-11.617h-8.447H867.636h-17.811H714.103
		c-3.817,0-7.477,1.523-10.164,4.228l-33.898,34.114L636.077,88.29c-2.701-2.709-6.371-4.235-10.195-4.235H490.201H478.39H237.983
		h-43.798H72.403v120.979H88.22v83.052H72.403v120.979h120.276h22.086c-0.001,0.11-0.015,0.215-0.015,0.324v37.689
		c0,14.363,11.643,26.008,26.006,26.008h766.453c14.364,0,26.008-11.645,26.008-26.008v-37.689c0-0.109-0.015-0.214-0.016-0.324
		h0.016h6.881h30.54h104.926V288.085h-15.812v-83.052H1175.563z M207.232,174.278h-15.816V318.84h15.816v59.47H103.154v-59.47
		h15.817V174.278h-15.817v-59.47h104.078V174.278z M295.763,435.928c0,9.055-5.541,15.146-15.471,15.146
		c-9.934,0-15.474-6.092-15.474-15.146v-23.975h7.734v23.975c0,4.885,2.8,7.958,7.74,7.958c4.936,0,7.736-3.073,7.736-7.958v-23.975
		h7.735V435.928z M373.73,450.36h-7.682l-16.57-26.116v26.116h-7.623v-38.406h7.847l16.405,26.337v-26.337h7.623V450.36z
		 M427.721,450.36h-7.734v-38.406h7.734V450.36z M447.638,189.778h-59.156v-15.5h-15.816V318.84h15.816v59.47H284.093v-59.47h16.134
		V174.278h-16.134v15.5h-59.15v-74.97h222.695V189.778z M493.236,450.36h-8.394l-14.158-38.406h8.506l9.823,29.299l9.818-29.299
		h8.504L493.236,450.36z M570.544,450.36h-20.246v-38.406h19.752v6.967h-12.017v8.558h10.317v6.859h-10.317v9.107h12.511V450.36z
		 M634.964,450.36l-7.458-15.034h-4.118v15.034h-7.734v-38.406h11.576c8.394,0,13.005,5.102,13.005,11.41
		c0,4.665-2.307,8.231-5.818,10.152l9.112,16.844H634.964z M661.152,208.759h-72.438v-26.016l-8.223-8.465h-38.593l-8.54,8.477
		v26.378l8.54,8.164h77.185l42.069,42.392v76.55l-42.069,42.07H502.989l-42.069-42.07v-50.613h72.438v24.676l8.54,8.538h38.593
		l8.223-8.224v-25.306l-8.223-8.543h-77.502l-42.069-41.986v-77.671l42.069-42.303h116.094l42.069,42.245V208.759z M696.968,451.075
		c-8.229,0-11.63-5.762-12.729-8.891l6.529-3.182c1.041,2.522,3.182,4.884,6.641,4.884c2.852,0,4.552-1.482,4.552-3.953
		c0-6.581-16.568-5.483-16.568-17.774c0-6.477,4.718-10.92,12.069-10.92c7.741,0,10.923,5.597,11.853,8.396l-6.418,2.906
		c-0.822-1.81-2.252-4.17-5.6-4.17c-2.63,0-4.171,1.591-4.171,3.677c0,6.364,16.683,5.431,16.683,17.339
		C709.809,446.133,704.979,451.075,696.968,451.075 M761.989,450.36h-7.735v-38.406h7.735V450.36z M818.503,450.36h-10.205v-38.406
		h10.205c12.564,0,20.358,7.187,20.358,19.202C838.861,443.445,831.014,450.36,818.503,450.36 M879.1,336.289l-42.073,42.021
		H720.938l-42.068-42.021V157.15l42.068-42.342h116.089L879.1,157.15V336.289z M907.5,450.36l-3.348-9.876h-13.059l-3.347,9.876
		h-7.789l13.606-38.406h8.123l13.604,38.406H907.5z M968.573,450.36h-10.206v-38.406h10.206c12.563,0,20.356,7.187,20.356,19.202
		C988.93,443.445,981.083,450.36,968.573,450.36 M1144.813,174.278h-15.817V318.84h15.817v59.47h-87.304l-70.86-117.989v58.519
		h15.816v59.47h-104.07v-59.47h15.814V174.278h-15.814v-59.47h85.725l72.438,120.838v-61.368h-15.816v-59.47h104.072V174.278z"/>
</g>
</svg>
